<?xml version="1.0" encoding="utf-8"?>
<!-- Generator: Adobe Illustrator 16.0.0, SVG Export Plug-In . SVG Version: 6.00 Build 0)  -->
<!DOCTYPE svg PUBLIC "-//W3C//DTD SVG 1.1//EN" "http://www.w3.org/Graphics/SVG/1.1/DTD/svg11.dtd">
<svg version="1.1" xmlns="http://www.w3.org/2000/svg" xmlns:xlink="http://www.w3.org/1999/xlink" x="0px" y="0px"
	 width="666.142px" height="48.359px" viewBox="0 0 666.142 48.359" enable-background="new 0 0 666.142 48.359"
	 xml:space="preserve">
<g id="Layer_1">
	<g>
		<g>
			<g>
				<path fill="#fff" d="M340.674,26.101v-4.36h17.666v-8.525h5.175v8.525h17.049v4.36H340.674z M357.913,3.672
					c0.046,5.86-1.806,11.479-4.986,15.598l-4.18-2.277c1.898-2.714,3.087-5.039,3.894-8.914h-7.883V3.672H357.913z M347.323,45.72
					V29.878h26.545V45.72H347.323z M368.787,34.285H352.45v7.024h16.337V34.285z M374.581,3.672c0,5.812-0.095,9.59-1.044,15.064
					l-5.035-0.727c0.618-3.631,0.903-6.684,0.855-9.931h-8.975V3.672H374.581z"/>
				<path fill="#fff" d="M384.217,26.101v-4.36h17.667v-8.525h5.175v8.525h17.049v4.36H384.217z M401.458,3.672
					c0.046,5.86-1.806,11.479-4.986,15.598l-4.18-2.277c1.898-2.714,3.087-5.039,3.894-8.914h-7.883V3.672H401.458z M390.867,45.72
					V29.878h26.545V45.72H390.867z M412.332,34.285h-16.335v7.024h16.335V34.285z M418.125,3.672c0,5.812-0.095,9.59-1.044,15.064
					l-5.035-0.727c0.618-3.631,0.903-6.684,0.855-9.931h-8.975V3.672H418.125z"/>
				<path fill="#fff" d="M452.742,15.443h-8.357v1.113c0,3.634,1.375,6.637,3.323,9.107c1.901,2.518,4.466,4.408,7.125,5.765
					l-3.183,3.974c-2.042-1.021-4.037-2.617-5.89-4.411c-1.756-1.79-3.276-3.826-4.083-5.763c-0.807,2.083-2.327,4.263-4.226,6.25
					c-1.901,1.983-4.085,3.726-5.984,4.697l-3.277-3.827c2.611-1.357,5.176-3.537,7.217-6.248c1.947-2.665,3.468-5.862,3.468-9.301
					v-1.356h-8.5v-4.457h22.368V15.443z M434.838,7.596V3.042h13.582v4.554H434.838z M459.01,2.17h5.129v42.386h-5.129V2.17z"/>
				<path fill="#fff" d="M471.258,30.945c2.565,0,5.841-0.05,9.307-0.193V17.816h5.129v12.692
					c5.175-0.244,10.305-0.681,13.961-1.164l0.475,4.31c-7.076,0.924-21.084,1.748-28.541,1.748L471.258,30.945z M489.303,25.179
					c1.235-5.377,1.853-11.044,1.947-15.064h-16.669V5.657h21.799c0,6.782-0.761,14.63-2.185,20.297L489.303,25.179z M506.543,2.17
					v16.131h6.553v4.455h-6.553v21.8h-5.129V2.17H506.543z"/>
			</g>
			<g>
				<path fill="#fff" d="M15.238,23.36c0-10.534,7.405-19.333,17.292-21.489C29.715,0.667,26.616,0,23.36,0
					C10.459,0,0,10.458,0,23.36c0,12.902,10.459,23.36,23.36,23.36c3.256,0,6.355-0.667,9.17-1.871
					C22.644,42.693,15.238,33.894,15.238,23.36z"/>
				<circle fill="#fff" cx="38.826" cy="13.311" r="7.441"/>
				<path fill="#fff" d="M78.106,0.232C67.046,2.13,58.628,11.759,58.628,23.36c0,11.601,8.418,21.23,19.478,23.128
					c-1.899-5.014-3.148-13.501-3.148-23.128C74.958,13.733,76.206,5.246,78.106,0.232z"/>
				<path fill="#fff" d="M105.575,23.36c0-11.602-8.418-21.23-19.478-23.128c1.899,5.014,3.148,13.501,3.148,23.128
					c0,9.626-1.249,18.114-3.148,23.128C97.157,44.59,105.575,34.961,105.575,23.36z"/>
				<rect x="117.142" y="3.374" fill="#fff" width="15.876" height="41.901"/>
				<path fill="#fff" d="M183.789,3.374c-2.002-1.223-4.354-1.929-6.871-1.929c-2.83,0-5.449,0.894-7.598,2.41
					c3.386,2.389,5.6,6.328,5.6,10.787v13.047v17.585h15.195V14.643C190.115,9.871,187.582,5.692,183.789,3.374z"/>
				<path fill="#fff" d="M214.463,3.374c-2.001-1.223-4.354-1.929-6.871-1.929c-2.83,0-5.449,0.894-7.598,2.41
					c3.386,2.389,5.599,6.328,5.599,10.787v13.047v17.585h15.196V14.643C220.79,9.871,218.257,5.692,214.463,3.374z"/>
				<path fill="#fff" d="M243.011,3.374c-2.001-1.223-4.354-1.929-6.871-1.929c-2.83,0-5.449,0.894-7.598,2.41
					c3.386,2.389,5.599,6.328,5.599,10.787v13.047v17.585h15.195V14.643C249.337,9.871,246.805,5.692,243.011,3.374z"/>
				<path fill="#fff" d="M155.24,3.374c-2.001-1.223-4.354-1.929-6.871-1.929c-2.83,0-5.449,0.894-7.598,2.41
					c3.386,2.389,5.599,6.328,5.599,10.787v13.047v17.585h15.196V14.643C161.566,9.871,159.034,5.692,155.24,3.374z"/>
				<g>
					<circle fill="#fff" cx="322.52" cy="40.917" r="7.442"/>
					<path fill="#fff" d="M284.526,0.232c-11.06,1.898-19.478,11.527-19.478,23.128c0,11.601,8.418,21.23,19.478,23.128
						c-1.899-5.014-3.148-13.501-3.148-23.128C281.378,13.733,282.627,5.246,284.526,0.232z"/>
					<path fill="#fff" d="M292.518,0.232c1.628,4.298,2.776,11.153,3.071,19.087h16.057
						C309.955,9.581,302.264,1.904,292.518,0.232z"/>
				</g>
			</g>
			<g>
				<path fill="#fff" d="M537.697,29.599c-0.391,0.204-0.742,0.353-1.048,0.45c-0.307,0.096-0.626,0.168-0.958,0.212
					c-0.332,0.046-0.689,0.067-1.078,0.067c-1.607,0-2.785-0.475-3.531-1.424c-0.746-0.951-1.12-2.145-1.12-3.58
					c0-1.467,0.389-2.669,1.162-3.608c0.775-0.94,1.961-1.41,3.56-1.41c0.851,0,1.851,0.14,3,0.419v1.271
					c-0.964-0.332-1.626-0.527-1.989-0.587c-0.363-0.06-0.71-0.09-1.036-0.09c-1.145,0-1.972,0.387-2.487,1.164
					c-0.515,0.776-0.771,1.728-0.771,2.854c0,1.175,0.296,2.123,0.887,2.848c0.592,0.725,1.428,1.088,2.512,1.088
					c0.302,0,0.601-0.027,0.901-0.082c0.298-0.052,0.597-0.132,0.893-0.237c0.296-0.105,0.664-0.277,1.103-0.512V29.599z"/>
				<path fill="#fff" d="M547,30.328c-0.903,0-1.688-0.202-2.357-0.605c-0.667-0.405-1.187-0.996-1.554-1.771
					c-0.368-0.777-0.552-1.655-0.552-2.636c0-0.945,0.176-1.807,0.527-2.583c0.349-0.776,0.867-1.375,1.55-1.797
					c0.685-0.421,1.479-0.631,2.386-0.631s1.704,0.21,2.386,0.631c0.685,0.422,1.201,1.021,1.552,1.797
					c0.351,0.776,0.525,1.637,0.525,2.583c0,0.942-0.172,1.799-0.519,2.571c-0.347,0.773-0.857,1.372-1.536,1.8
					C548.733,30.116,547.928,30.328,547,30.328z M547,29.315c0.964,0,1.708-0.359,2.235-1.077c0.527-0.716,0.79-1.696,0.79-2.935
					c0-1.234-0.265-2.207-0.796-2.918c-0.531-0.711-1.273-1.067-2.229-1.067c-0.954,0-1.697,0.356-2.229,1.067
					c-0.531,0.712-0.796,1.685-0.796,2.918c0,1.238,0.262,2.218,0.79,2.935C545.292,28.957,546.038,29.315,547,29.315z"/>
				<path fill="#fff" d="M556.794,30.091v-9.547h1.88l2.653,7.385l2.729-7.385h1.672v9.547h-1.262v-7.767l-2.643,7.128h-1.3
					l-2.56-7.148v7.787H556.794z"/>
				<path fill="#fff" d="M571.604,30.091v-9.547h1.88l2.653,7.385l2.729-7.385h1.672v9.547h-1.263v-7.767l-2.642,7.128h-1.3
					l-2.561-7.148v7.787H571.604z"/>
				<path fill="#fff" d="M586.417,30.091v-9.547h5.348v1.013h-3.993v3.063h3.348v1h-3.348v3.458h4.27v1.013H586.417z"/>
				<path fill="#fff" d="M611.797,29.599c-0.391,0.204-0.742,0.353-1.048,0.45c-0.307,0.096-0.626,0.168-0.958,0.212
					c-0.332,0.046-0.689,0.067-1.078,0.067c-1.607,0-2.785-0.475-3.531-1.424c-0.746-0.951-1.12-2.145-1.12-3.58
					c0-1.467,0.389-2.669,1.162-3.608c0.775-0.94,1.962-1.41,3.56-1.41c0.851,0,1.851,0.14,3,0.419v1.271
					c-0.964-0.332-1.625-0.527-1.989-0.587c-0.363-0.06-0.709-0.09-1.035-0.09c-1.145,0-1.973,0.387-2.487,1.164
					c-0.515,0.776-0.771,1.728-0.771,2.854c0,1.175,0.296,2.123,0.886,2.848c0.592,0.725,1.428,1.088,2.512,1.088
					c0.302,0,0.601-0.027,0.901-0.082c0.298-0.052,0.597-0.132,0.893-0.237c0.296-0.105,0.664-0.277,1.103-0.512V29.599z"/>
				<path fill="#fff" d="M621.102,30.328c-0.903,0-1.689-0.202-2.357-0.605c-0.668-0.405-1.187-0.996-1.554-1.771
					c-0.368-0.777-0.553-1.655-0.553-2.636c0-0.945,0.177-1.807,0.527-2.583c0.349-0.776,0.868-1.375,1.55-1.797
					c0.685-0.421,1.479-0.631,2.386-0.631c0.907,0,1.703,0.21,2.386,0.631c0.685,0.422,1.202,1.021,1.552,1.797
					c0.351,0.776,0.525,1.637,0.525,2.583c0,0.942-0.172,1.799-0.519,2.571c-0.347,0.773-0.857,1.372-1.535,1.8
					C622.834,30.116,622.03,30.328,621.102,30.328z M621.102,29.315c0.964,0,1.708-0.359,2.234-1.077
					c0.527-0.716,0.79-1.696,0.79-2.935c0-1.234-0.265-2.207-0.796-2.918c-0.532-0.711-1.273-1.067-2.229-1.067
					c-0.954,0-1.697,0.356-2.229,1.067c-0.532,0.712-0.796,1.685-0.796,2.918c0,1.238,0.263,2.218,0.79,2.935
					C619.394,28.957,620.14,29.315,621.102,29.315z"/>
				<path fill="#fff" d="M630.894,30.091v-9.547h1.88l2.653,7.385l2.729-7.385h1.672v9.547h-1.263v-7.767l-2.643,7.128h-1.3
					l-2.561-7.148v7.787H630.894z"/>
				<path fill="#fff" d="M645.707,30.091v-9.547h1.88l2.653,7.385l2.729-7.385h1.672v9.547h-1.262v-7.767l-2.643,7.128h-1.3
					l-2.56-7.148v7.787H645.707z"/>
				<path fill="#fff" d="M660.517,30.091v-9.547h5.348v1.013h-3.993v3.063h3.348v1h-3.348v3.458h4.27v1.013H660.517z"/>
				<path fill="#fff" d="M532.789,45.94v-8.532h-3.386v-1.012h8.127v1.012h-3.386v8.532H532.789z"/>
				<path fill="#fff" d="M542.312,45.94v-9.544h1.354v4.024h4.542v-4.024h1.354v9.544h-1.354v-4.507h-4.542v4.507H542.312z"/>
				<path fill="#fff" d="M555.452,45.94v-9.544h5.348v1.012h-3.993v3.063h3.348v1h-3.348v3.458h4.27v1.012H555.452z"/>
				<path fill="#fff" d="M573.659,45.94v-9.544h3.171c1.225,0,2.153,0.176,2.783,0.531c0.632,0.355,1.128,0.874,1.487,1.554
					c0.357,0.683,0.538,1.502,0.538,2.459c0,0.908-0.164,1.741-0.494,2.498c-0.328,0.756-0.828,1.363-1.498,1.819
					c-0.67,0.456-1.603,0.683-2.798,0.683H573.659z M575.014,44.928h1.731c0.901,0,1.575-0.143,2.025-0.428
					c0.447-0.286,0.798-0.74,1.05-1.357c0.254-0.619,0.38-1.311,0.38-2.071c0-0.67-0.109-1.283-0.328-1.835
					c-0.218-0.553-0.573-0.996-1.061-1.328c-0.49-0.334-1.384-0.5-2.685-0.5h-1.113V44.928z"/>
				<path fill="#fff" d="M586.988,45.94v-9.544h5.348v1.012h-3.993v3.063h3.348v1h-3.348v3.458h4.27v1.012H586.988z"/>
				<path fill="#fff" d="M597.581,45.94v-9.544h1.336l4.787,7.364v-7.364h1.166v9.544h-1.328l-4.793-7.362v7.362H597.581z"/>
				<path fill="#fff" d="M613.038,45.94v-8.532h-3.386v-1.012h8.126v1.012h-3.386v8.532H613.038z"/>
				<path fill="#fff" d="M622.555,45.94v-9.544h1.355v9.544H622.555z"/>
				<path fill="#fff" d="M629.22,45.76v-1.342c0.771,0.353,1.332,0.567,1.687,0.641c0.355,0.071,0.685,0.109,0.987,0.109
					c0.548,0,0.983-0.149,1.3-0.45c0.317-0.298,0.477-0.655,0.477-1.073c0-0.313-0.084-0.603-0.25-0.87
					c-0.17-0.263-0.59-0.584-1.26-0.962l-0.66-0.38c-0.882-0.5-1.472-0.956-1.775-1.367c-0.302-0.414-0.454-0.872-0.454-1.374
					c0-0.452,0.12-0.875,0.359-1.271c0.239-0.395,0.561-0.706,0.966-0.928c0.403-0.225,0.912-0.336,1.527-0.336
					c0.737,0,1.519,0.122,2.34,0.368v1.239c-0.714-0.279-1.206-0.449-1.472-0.506c-0.265-0.059-0.532-0.088-0.794-0.088
					c-0.555,0-0.964,0.146-1.231,0.433c-0.267,0.288-0.399,0.582-0.399,0.884c0,0.206,0.063,0.416,0.189,0.628
					c0.126,0.212,0.294,0.395,0.508,0.548c0.212,0.153,0.504,0.333,0.875,0.544l0.687,0.389c0.891,0.502,1.483,0.962,1.781,1.38
					c0.298,0.42,0.447,0.905,0.447,1.452c0,0.743-0.283,1.388-0.853,1.934c-0.567,0.546-1.403,0.819-2.51,0.819
					c-0.34,0-0.67-0.023-0.991-0.067C630.384,46.066,629.89,45.949,629.22,45.76z"/>
				<path fill="#fff" d="M642.613,45.94v-8.532h-3.386v-1.012h8.127v1.012h-3.386v8.532H642.613z"/>
			</g>
		</g>
	</g>
</g>
<g id="Layer_2">
</g>
</svg>
