<?xml version="1.0" encoding="utf-8"?>
<!-- Generator: Adobe Illustrator 16.0.0, SVG Export Plug-In . SVG Version: 6.00 Build 0)  -->
<!DOCTYPE svg PUBLIC "-//W3C//DTD SVG 1.1//EN" "http://www.w3.org/Graphics/SVG/1.1/DTD/svg11.dtd">
<svg version="1.1" id="Layer_1" xmlns="http://www.w3.org/2000/svg" xmlns:xlink="http://www.w3.org/1999/xlink" x="0px" y="0px"
	 width="24px" height="24px" viewBox="0 0 24 24" enable-background="new 0 0 24 24" xml:space="preserve">
<path fill="#CACACA" d="M12,8.666c-1.838,0-3.333,1.496-3.333,3.334s1.495,3.333,3.333,3.333s3.333-1.495,3.333-3.333
	S13.838,8.666,12,8.666 M12,16.333c-2.39,0-4.333-1.942-4.333-4.333c0-2.39,1.943-4.334,4.333-4.334
	c2.391,0,4.333,1.944,4.333,4.334C16.333,14.391,14.391,16.333,12,16.333 M10.807,23h2.386c0.379-1.104,0.668-2.451,2.106-3.05
	c1.496-0.617,2.666,0.196,3.636,0.672l1.686-1.688c-0.508-1.047-1.266-2.199-0.669-3.641c0.567-1.369,1.739-1.663,3.048-2.1v-2.387
	c-1.234-0.421-2.471-0.708-3.047-2.098c-0.572-1.38,0.057-2.395,0.669-3.643l-1.687-1.686c-1.117,0.547-2.222,1.257-3.643,0.668
	c-1.374-0.571-1.656-1.734-2.1-3.047h-2.386c-0.424,1.231-0.704,2.468-2.099,3.046C8.343,4.199,7.99,4.272,7.631,4.272
	c-0.843,0-1.539-0.392-2.566-0.893L3.378,5.065C3.952,6.24,4.629,7.302,4.047,8.708C3.476,10.083,2.313,10.362,1,10.806v2.387
	c1.226,0.418,2.468,0.705,3.047,2.099c0.581,1.403-0.075,2.433-0.669,3.644l1.687,1.687c1.45-0.726,2.355-1.204,3.642-0.669
	C10.085,20.525,10.362,21.691,10.807,23 M13.9,24h-3.802c-0.681-1.918-0.785-2.713-1.773-3.123
	c-1.005-0.419-1.731,0.132-3.466,0.952L2.17,19.141c0.873-1.838,1.367-2.466,0.953-3.466C2.711,14.684,1.931,14.588,0,13.902v-3.804
	C1.906,9.42,2.712,9.316,3.123,8.325C3.534,7.334,3.052,6.712,2.17,4.859l2.689-2.688C6.6,2.999,7.325,3.536,8.324,3.124
	C9.316,2.712,9.406,1.939,10.099,0H13.9c0.683,1.918,0.789,2.714,1.774,3.123c1.001,0.416,1.709-0.119,3.468-0.952l2.687,2.688
	c-0.878,1.847-1.361,2.477-0.952,3.465c0.411,0.992,1.191,1.087,3.123,1.774v3.804c-1.906,0.678-2.713,0.783-3.124,1.773
	c-0.403,0.975,0.044,1.561,0.954,3.465l-2.688,2.688c-1.729-0.82-2.468-1.37-3.457-0.955C14.698,21.284,14.605,22.02,13.9,24"/>
</svg>
