<?xml version="1.0" encoding="utf-8"?>
<!-- Generator: Adobe Illustrator 16.0.0, SVG Export Plug-In . SVG Version: 6.00 Build 0)  -->
<!DOCTYPE svg PUBLIC "-//W3C//DTD SVG 1.1//EN" "http://www.w3.org/Graphics/SVG/1.1/DTD/svg11.dtd">
<svg version="1.1" id="Layer_1" xmlns="http://www.w3.org/2000/svg" xmlns:xlink="http://www.w3.org/1999/xlink" x="0px" y="0px"
	 width="24px" height="24px" viewBox="0 0 24 24" enable-background="new 0 0 24 24" xml:space="preserve">
<path fill="#CACACA" d="M12,2c2.757,0,5,2.243,5,5.001c0,2.756-2.243,5-5,5s-5-2.244-5-5C7,4.243,9.243,2,12,2z M12,0
	C8.134,0,5,3.134,5,7.001c0,3.865,3.134,7,7,7s7-3.135,7-7C19,3.134,15.866,0,12,0z M18.369,13.354
	c-0.497,0.498-1.057,0.931-1.658,1.301c2.872,1.875,4.378,5.084,4.973,7.347H2.296c0.572-2.29,2.058-5.503,4.973-7.358
	c-0.603-0.373-1.162-0.811-1.658-1.312C1.353,16.402,0,21.837,0,24h24C24,21.857,22.561,16.443,18.369,13.354z"/>
</svg>
